<?xml version="1.0" encoding="UTF-8" standalone="no"?>
<!DOCTYPE svg PUBLIC "-//W3C//DTD SVG 1.1//EN"
 "http://www.w3.org/Graphics/SVG/1.1/DTD/svg11.dtd">
<!-- Generated by graphviz version 2.47.0 (20210316.0004)
 -->
<!-- Title: dependencies Pages: 1 -->
<svg width="1070pt" height="284pt"
 viewBox="0.00 0.00 1070.00 284.00" xmlns="http://www.w3.org/2000/svg" xmlns:xlink="http://www.w3.org/1999/xlink">
<g id="graph0" class="graph" transform="scale(1 1) rotate(0) translate(4 280)">
<title>dependencies</title>
<polygon fill="white" stroke="transparent" points="-4,4 -4,-280 1066,-280 1066,4 -4,4"/>
<text text-anchor="start" x="510.01" y="-42.4" font-family="Times-12" font-weight="bold" font-size="14.00">Legend</text>
<polygon fill="#ffffb3" stroke="transparent" points="297,-10 297,-30 317,-30 317,-10 297,-10"/>
<text text-anchor="start" x="320.63" y="-15.4" font-family="Times-12" font-size="14.00"> &#160;Declarations</text>
<polygon fill="#8dd3c7" stroke="transparent" points="410,-10 410,-30 430,-30 430,-10 410,-10"/>
<text text-anchor="start" x="433.73" y="-15.4" font-family="Times-12" font-size="14.00"> &#160;Module</text>
<polygon fill="#80b1d3" stroke="transparent" points="496,-10 496,-30 516,-30 516,-10 496,-10"/>
<text text-anchor="start" x="519.78" y="-15.4" font-family="Times-12" font-size="14.00"> &#160;Bootstrap</text>
<polygon fill="#fdb462" stroke="transparent" points="593,-10 593,-30 613,-30 613,-10 593,-10"/>
<text text-anchor="start" x="616.67" y="-15.4" font-family="Times-12" font-size="14.00"> &#160;Providers</text>
<polygon fill="#fb8072" stroke="transparent" points="689,-10 689,-30 709,-30 709,-10 689,-10"/>
<text text-anchor="start" x="712.73" y="-15.4" font-family="Times-12" font-size="14.00"> &#160;Exports</text>
<g id="clust1" class="cluster">
<title>cluster_AppModule</title>
<polygon fill="none" stroke="black" stroke-dasharray="1,5" points="8,-70 8,-268 1054,-268 1054,-70 8,-70"/>
</g>
<g id="clust2" class="cluster">
<title>cluster_AppModule_declarations</title>
<polygon fill="none" stroke="black" points="300,-78 300,-130 1046,-130 1046,-78 300,-78"/>
</g>
<g id="clust7" class="cluster">
<title>cluster_AppModule_imports</title>
<polygon fill="none" stroke="black" points="16,-78 16,-130 292,-130 292,-78 16,-78"/>
</g>
<g id="clust9" class="cluster">
<title>cluster_AppModule_bootstrap</title>
<polygon fill="none" stroke="black" points="439,-208 439,-260 563,-260 563,-208 439,-208"/>
</g>
<!-- AppComponent -->
<g id="node1" class="node">
<title>AppComponent</title>
<polygon fill="#ffffb3" stroke="black" points="1037.94,-122 932.06,-122 932.06,-86 1037.94,-86 1037.94,-122"/>
<text text-anchor="middle" x="985" y="-99.8" font-family="Times,serif" font-size="14.00">AppComponent</text>
</g>
<!-- AppModule -->
<g id="node5" class="node">
<title>AppModule</title>
<polygon fill="#8dd3c7" stroke="black" points="542.66,-187 539.66,-191 518.66,-191 515.66,-187 459.34,-187 459.34,-151 542.66,-151 542.66,-187"/>
<text text-anchor="middle" x="501" y="-164.8" font-family="Times,serif" font-size="14.00">AppModule</text>
</g>
<!-- AppComponent&#45;&gt;AppModule -->
<g id="edge1" class="edge">
<title>AppComponent&#45;&gt;AppModule</title>
<path fill="none" stroke="black" d="M985,-122.28C985,-143.32 985,-175 985,-175 985,-175 552.68,-175 552.68,-175"/>
<polygon fill="black" stroke="black" points="552.68,-171.5 542.68,-175 552.68,-178.5 552.68,-171.5"/>
</g>
<!-- DasboardModulesComponent -->
<g id="node2" class="node">
<title>DasboardModulesComponent</title>
<polygon fill="#ffffb3" stroke="black" points="913.97,-122 730.03,-122 730.03,-86 913.97,-86 913.97,-122"/>
<text text-anchor="middle" x="822" y="-99.8" font-family="Times,serif" font-size="14.00">DasboardModulesComponent</text>
</g>
<!-- DasboardModulesComponent&#45;&gt;AppModule -->
<g id="edge2" class="edge">
<title>DasboardModulesComponent&#45;&gt;AppModule</title>
<path fill="none" stroke="black" d="M822,-122.02C822,-139.37 822,-163 822,-163 822,-163 552.97,-163 552.97,-163"/>
<polygon fill="black" stroke="black" points="552.97,-159.5 542.97,-163 552.97,-166.5 552.97,-159.5"/>
</g>
<!-- MatConfirmBtnDialogComponent -->
<g id="node3" class="node">
<title>MatConfirmBtnDialogComponent</title>
<polygon fill="#ffffb3" stroke="black" points="711.65,-122 502.35,-122 502.35,-86 711.65,-86 711.65,-122"/>
<text text-anchor="middle" x="607" y="-99.8" font-family="Times,serif" font-size="14.00">MatConfirmBtnDialogComponent</text>
</g>
<!-- MatConfirmBtnDialogComponent&#45;&gt;AppModule -->
<g id="edge3" class="edge">
<title>MatConfirmBtnDialogComponent&#45;&gt;AppModule</title>
<path fill="none" stroke="black" d="M522.5,-122.11C522.5,-122.11 522.5,-140.99 522.5,-140.99"/>
<polygon fill="black" stroke="black" points="519,-140.99 522.5,-150.99 526,-140.99 519,-140.99"/>
</g>
<!-- MatErrorsDialogComponent -->
<g id="node4" class="node">
<title>MatErrorsDialogComponent</title>
<polygon fill="#ffffb3" stroke="black" points="484.46,-122 307.54,-122 307.54,-86 484.46,-86 484.46,-122"/>
<text text-anchor="middle" x="396" y="-99.8" font-family="Times,serif" font-size="14.00">MatErrorsDialogComponent</text>
</g>
<!-- MatErrorsDialogComponent&#45;&gt;AppModule -->
<g id="edge4" class="edge">
<title>MatErrorsDialogComponent&#45;&gt;AppModule</title>
<path fill="none" stroke="black" d="M471.83,-122.11C471.83,-122.11 471.83,-140.99 471.83,-140.99"/>
<polygon fill="black" stroke="black" points="468.33,-140.99 471.83,-150.99 475.33,-140.99 468.33,-140.99"/>
</g>
<!-- AppComponent  -->
<g id="node8" class="node">
<title>AppComponent </title>
<polygon fill="#80b1d3" stroke="black" points="555.44,-252 446.56,-252 446.56,-216 555.44,-216 555.44,-252"/>
<text text-anchor="middle" x="501" y="-229.8" font-family="Times,serif" font-size="14.00">AppComponent </text>
</g>
<!-- AppModule&#45;&gt;AppComponent  -->
<g id="edge7" class="edge">
<title>AppModule&#45;&gt;AppComponent </title>
<path fill="none" stroke="black" stroke-dasharray="1,5" d="M501,-187.11C501,-187.11 501,-205.99 501,-205.99"/>
<polygon fill="black" stroke="black" points="497.5,-205.99 501,-215.99 504.5,-205.99 497.5,-205.99"/>
</g>
<!-- AppRoutingModule -->
<g id="node6" class="node">
<title>AppRoutingModule</title>
<polygon fill="#8dd3c7" stroke="black" points="284.27,-122 281.27,-126 260.27,-126 257.27,-122 155.73,-122 155.73,-86 284.27,-86 284.27,-122"/>
<text text-anchor="middle" x="220" y="-99.8" font-family="Times,serif" font-size="14.00">AppRoutingModule</text>
</g>
<!-- AppRoutingModule&#45;&gt;AppModule -->
<g id="edge5" class="edge">
<title>AppRoutingModule&#45;&gt;AppModule</title>
<path fill="none" stroke="black" d="M220,-122.02C220,-139.37 220,-163 220,-163 220,-163 449.23,-163 449.23,-163"/>
<polygon fill="black" stroke="black" points="449.23,-166.5 459.23,-163 449.23,-159.5 449.23,-166.5"/>
</g>
<!-- DasboardModule -->
<g id="node7" class="node">
<title>DasboardModule</title>
<polygon fill="#8dd3c7" stroke="black" points="137.69,-122 134.69,-126 113.69,-126 110.69,-122 24.31,-122 24.31,-86 137.69,-86 137.69,-122"/>
<text text-anchor="middle" x="81" y="-99.8" font-family="Times,serif" font-size="14.00">DasboardModule</text>
</g>
<!-- DasboardModule&#45;&gt;AppModule -->
<g id="edge6" class="edge">
<title>DasboardModule&#45;&gt;AppModule</title>
<path fill="none" stroke="black" d="M81,-122.28C81,-143.32 81,-175 81,-175 81,-175 449.19,-175 449.19,-175"/>
<polygon fill="black" stroke="black" points="449.19,-178.5 459.19,-175 449.19,-171.5 449.19,-178.5"/>
</g>
</g>
</svg>
