<?xml version="1.0" encoding="UTF-8" standalone="no"?>
<!DOCTYPE svg PUBLIC "-//W3C//DTD SVG 1.1//EN"
 "http://www.w3.org/Graphics/SVG/1.1/DTD/svg11.dtd">
<!-- Generated by graphviz version 2.47.0 (20210316.0004)
 -->
<!-- Title: dependencies Pages: 1 -->
<svg width="2383pt" height="284pt"
 viewBox="0.00 0.00 2383.00 284.00" xmlns="http://www.w3.org/2000/svg" xmlns:xlink="http://www.w3.org/1999/xlink">
<g id="graph0" class="graph" transform="scale(1 1) rotate(0) translate(4 280)">
<title>dependencies</title>
<polygon fill="white" stroke="transparent" points="-4,4 -4,-280 2379,-280 2379,4 -4,4"/>
<text text-anchor="start" x="1166.51" y="-42.4" font-family="Times-12" font-weight="bold" font-size="14.00">Legend</text>
<polygon fill="#ffffb3" stroke="transparent" points="953.5,-10 953.5,-30 973.5,-30 973.5,-10 953.5,-10"/>
<text text-anchor="start" x="977.13" y="-15.4" font-family="Times-12" font-size="14.00"> &#160;Declarations</text>
<polygon fill="#8dd3c7" stroke="transparent" points="1066.5,-10 1066.5,-30 1086.5,-30 1086.5,-10 1066.5,-10"/>
<text text-anchor="start" x="1090.23" y="-15.4" font-family="Times-12" font-size="14.00"> &#160;Module</text>
<polygon fill="#80b1d3" stroke="transparent" points="1152.5,-10 1152.5,-30 1172.5,-30 1172.5,-10 1152.5,-10"/>
<text text-anchor="start" x="1176.28" y="-15.4" font-family="Times-12" font-size="14.00"> &#160;Bootstrap</text>
<polygon fill="#fdb462" stroke="transparent" points="1249.5,-10 1249.5,-30 1269.5,-30 1269.5,-10 1249.5,-10"/>
<text text-anchor="start" x="1273.17" y="-15.4" font-family="Times-12" font-size="14.00"> &#160;Providers</text>
<polygon fill="#fb8072" stroke="transparent" points="1345.5,-10 1345.5,-30 1365.5,-30 1365.5,-10 1345.5,-10"/>
<text text-anchor="start" x="1369.23" y="-15.4" font-family="Times-12" font-size="14.00"> &#160;Exports</text>
<g id="clust1" class="cluster">
<title>cluster_DasboardModule</title>
<polygon fill="none" stroke="black" stroke-dasharray="1,5" points="8,-70 8,-268 2367,-268 2367,-70 8,-70"/>
</g>
<g id="clust16" class="cluster">
<title>cluster_DasboardModule_exports</title>
<polygon fill="none" stroke="black" points="1034,-208 1034,-260 1184,-260 1184,-208 1034,-208"/>
</g>
<g id="clust15" class="cluster">
<title>cluster_DasboardModule_imports</title>
<polygon fill="none" stroke="black" points="2185,-78 2185,-130 2359,-130 2359,-78 2185,-78"/>
</g>
<g id="clust2" class="cluster">
<title>cluster_DasboardModule_declarations</title>
<polygon fill="none" stroke="black" points="16,-78 16,-130 2177,-130 2177,-78 16,-78"/>
</g>
<!-- FinallyReportComponent -->
<g id="node1" class="node">
<title>FinallyReportComponent</title>
<polygon fill="#ffffb3" stroke="black" points="2168.6,-122 2009.4,-122 2009.4,-86 2168.6,-86 2168.6,-122"/>
<text text-anchor="middle" x="2089" y="-99.8" font-family="Times,serif" font-size="14.00">FinallyReportComponent</text>
</g>
<!-- DasboardModule -->
<g id="node13" class="node">
<title>DasboardModule</title>
<polygon fill="#8dd3c7" stroke="black" points="1165.69,-187 1162.69,-191 1141.69,-191 1138.69,-187 1052.31,-187 1052.31,-151 1165.69,-151 1165.69,-187"/>
<text text-anchor="middle" x="1109" y="-164.8" font-family="Times,serif" font-size="14.00">DasboardModule</text>
</g>
<!-- FinallyReportComponent&#45;&gt;DasboardModule -->
<g id="edge1" class="edge">
<title>FinallyReportComponent&#45;&gt;DasboardModule</title>
<path fill="none" stroke="black" d="M2089,-122.04C2089,-143.66 2089,-177 2089,-177 2089,-177 1175.92,-177 1175.92,-177"/>
<polygon fill="black" stroke="black" points="1175.92,-173.5 1165.92,-177 1175.92,-180.5 1175.92,-173.5"/>
</g>
<!-- HeaderReportComponent -->
<g id="node2" class="node">
<title>HeaderReportComponent</title>
<polygon fill="#ffffb3" stroke="black" points="1991.85,-122 1832.15,-122 1832.15,-86 1991.85,-86 1991.85,-122"/>
<text text-anchor="middle" x="1912" y="-99.8" font-family="Times,serif" font-size="14.00">HeaderReportComponent</text>
</g>
<!-- HeaderReportComponent&#45;&gt;DasboardModule -->
<g id="edge2" class="edge">
<title>HeaderReportComponent&#45;&gt;DasboardModule</title>
<path fill="none" stroke="black" d="M1912,-122.22C1912,-142.37 1912,-172 1912,-172 1912,-172 1175.79,-172 1175.79,-172"/>
<polygon fill="black" stroke="black" points="1175.79,-168.5 1165.79,-172 1175.79,-175.5 1175.79,-168.5"/>
</g>
<!-- HeaderReportFinallyComponent -->
<g id="node3" class="node">
<title>HeaderReportFinallyComponent</title>
<polygon fill="#ffffb3" stroke="black" points="1813.52,-122 1614.48,-122 1614.48,-86 1813.52,-86 1813.52,-122"/>
<text text-anchor="middle" x="1714" y="-99.8" font-family="Times,serif" font-size="14.00">HeaderReportFinallyComponent</text>
</g>
<!-- HeaderReportFinallyComponent&#45;&gt;DasboardModule -->
<g id="edge3" class="edge">
<title>HeaderReportFinallyComponent&#45;&gt;DasboardModule</title>
<path fill="none" stroke="black" d="M1714,-122.22C1714,-140.83 1714,-167 1714,-167 1714,-167 1175.65,-167 1175.65,-167"/>
<polygon fill="black" stroke="black" points="1175.65,-163.5 1165.65,-167 1175.64,-170.5 1175.65,-163.5"/>
</g>
<!-- IndicatorIndividualComponent -->
<g id="node4" class="node">
<title>IndicatorIndividualComponent</title>
<polygon fill="#ffffb3" stroke="black" points="1596.91,-122 1407.09,-122 1407.09,-86 1596.91,-86 1596.91,-122"/>
<text text-anchor="middle" x="1502" y="-99.8" font-family="Times,serif" font-size="14.00">IndicatorIndividualComponent</text>
</g>
<!-- IndicatorIndividualComponent&#45;&gt;DasboardModule -->
<g id="edge4" class="edge">
<title>IndicatorIndividualComponent&#45;&gt;DasboardModule</title>
<path fill="none" stroke="black" d="M1502,-122.03C1502,-139.06 1502,-162 1502,-162 1502,-162 1175.73,-162 1175.73,-162"/>
<polygon fill="black" stroke="black" points="1175.73,-158.5 1165.73,-162 1175.73,-165.5 1175.73,-158.5"/>
</g>
<!-- IndicatorReportComponent -->
<g id="node5" class="node">
<title>IndicatorReportComponent</title>
<polygon fill="#ffffb3" stroke="black" points="1388.97,-122 1219.03,-122 1219.03,-86 1388.97,-86 1388.97,-122"/>
<text text-anchor="middle" x="1304" y="-99.8" font-family="Times,serif" font-size="14.00">IndicatorReportComponent</text>
</g>
<!-- IndicatorReportComponent&#45;&gt;DasboardModule -->
<g id="edge5" class="edge">
<title>IndicatorReportComponent&#45;&gt;DasboardModule</title>
<path fill="none" stroke="black" d="M1304,-122.24C1304,-137.57 1304,-157 1304,-157 1304,-157 1175.66,-157 1175.66,-157"/>
<polygon fill="black" stroke="black" points="1175.66,-153.5 1165.66,-157 1175.66,-160.5 1175.66,-153.5"/>
</g>
<!-- MonitoringReportComponent -->
<g id="node6" class="node">
<title>MonitoringReportComponent</title>
<polygon fill="#ffffb3" stroke="black" points="1200.71,-122 1017.29,-122 1017.29,-86 1200.71,-86 1200.71,-122"/>
<text text-anchor="middle" x="1109" y="-99.8" font-family="Times,serif" font-size="14.00">MonitoringReportComponent</text>
</g>
<!-- MonitoringReportComponent&#45;&gt;DasboardModule -->
<g id="edge6" class="edge">
<title>MonitoringReportComponent&#45;&gt;DasboardModule</title>
<path fill="none" stroke="black" d="M1109,-122.11C1109,-122.11 1109,-140.99 1109,-140.99"/>
<polygon fill="black" stroke="black" points="1105.5,-140.99 1109,-150.99 1112.5,-140.99 1105.5,-140.99"/>
</g>
<!-- OrderReportComponent -->
<g id="node7" class="node">
<title>OrderReportComponent</title>
<polygon fill="#ffffb3" stroke="black" points="999.08,-122 846.92,-122 846.92,-86 999.08,-86 999.08,-122"/>
<text text-anchor="middle" x="923" y="-99.8" font-family="Times,serif" font-size="14.00">OrderReportComponent</text>
</g>
<!-- OrderReportComponent&#45;&gt;DasboardModule -->
<g id="edge7" class="edge">
<title>OrderReportComponent&#45;&gt;DasboardModule</title>
<path fill="none" stroke="black" d="M923,-122.24C923,-137.57 923,-157 923,-157 923,-157 1042.18,-157 1042.18,-157"/>
<polygon fill="black" stroke="black" points="1042.18,-160.5 1052.18,-157 1042.18,-153.5 1042.18,-160.5"/>
</g>
<!-- PaginateComponent -->
<g id="node8" class="node">
<title>PaginateComponent</title>
<polygon fill="#ffffb3" stroke="black" points="828.54,-122 699.46,-122 699.46,-86 828.54,-86 828.54,-122"/>
<text text-anchor="middle" x="764" y="-99.8" font-family="Times,serif" font-size="14.00">PaginateComponent</text>
</g>
<!-- PaginateComponent&#45;&gt;DasboardModule -->
<g id="edge8" class="edge">
<title>PaginateComponent&#45;&gt;DasboardModule</title>
<path fill="none" stroke="black" d="M764,-122.03C764,-139.06 764,-162 764,-162 764,-162 1042.03,-162 1042.03,-162"/>
<polygon fill="black" stroke="black" points="1042.03,-165.5 1052.03,-162 1042.03,-158.5 1042.03,-165.5"/>
</g>
<!-- PipeMoneyPipe -->
<g id="node9" class="node">
<title>PipeMoneyPipe</title>
<polygon fill="#ffffb3" stroke="black" points="681.94,-122 576.06,-122 576.06,-86 681.94,-86 681.94,-122"/>
<text text-anchor="middle" x="629" y="-99.8" font-family="Times,serif" font-size="14.00">PipeMoneyPipe</text>
</g>
<!-- PipeMoneyPipe&#45;&gt;DasboardModule -->
<g id="edge9" class="edge">
<title>PipeMoneyPipe&#45;&gt;DasboardModule</title>
<path fill="none" stroke="black" d="M629,-122.22C629,-140.83 629,-167 629,-167 629,-167 1042.05,-167 1042.05,-167"/>
<polygon fill="black" stroke="black" points="1042.05,-170.5 1052.05,-167 1042.05,-163.5 1042.05,-170.5"/>
</g>
<!-- RankingComponent -->
<g id="node10" class="node">
<title>RankingComponent</title>
<polygon fill="#ffffb3" stroke="black" points="558.27,-122 429.73,-122 429.73,-86 558.27,-86 558.27,-122"/>
<text text-anchor="middle" x="494" y="-99.8" font-family="Times,serif" font-size="14.00">RankingComponent</text>
</g>
<!-- RankingComponent&#45;&gt;DasboardModule -->
<g id="edge10" class="edge">
<title>RankingComponent&#45;&gt;DasboardModule</title>
<path fill="none" stroke="black" d="M494,-122.22C494,-142.37 494,-172 494,-172 494,-172 1042.24,-172 1042.24,-172"/>
<polygon fill="black" stroke="black" points="1042.24,-175.5 1052.24,-172 1042.24,-168.5 1042.24,-175.5"/>
</g>
<!-- SelectorReportComponent -->
<g id="node11" class="node">
<title>SelectorReportComponent</title>
<polygon fill="#ffffb3" stroke="black" points="411.8,-122 246.2,-122 246.2,-86 411.8,-86 411.8,-122"/>
<text text-anchor="middle" x="329" y="-99.8" font-family="Times,serif" font-size="14.00">SelectorReportComponent</text>
</g>
<!-- SelectorReportComponent&#45;&gt;DasboardModule -->
<g id="edge11" class="edge">
<title>SelectorReportComponent&#45;&gt;DasboardModule</title>
<path fill="none" stroke="black" d="M329,-122.04C329,-143.66 329,-177 329,-177 329,-177 1042.28,-177 1042.28,-177"/>
<polygon fill="black" stroke="black" points="1042.28,-180.5 1052.28,-177 1042.28,-173.5 1042.28,-180.5"/>
</g>
<!-- SelectorReportFinallyComponent -->
<g id="node12" class="node">
<title>SelectorReportFinallyComponent</title>
<polygon fill="#ffffb3" stroke="black" points="228.47,-122 23.53,-122 23.53,-86 228.47,-86 228.47,-122"/>
<text text-anchor="middle" x="126" y="-99.8" font-family="Times,serif" font-size="14.00">SelectorReportFinallyComponent</text>
</g>
<!-- SelectorReportFinallyComponent&#45;&gt;DasboardModule -->
<g id="edge12" class="edge">
<title>SelectorReportFinallyComponent&#45;&gt;DasboardModule</title>
<path fill="none" stroke="black" d="M126,-122.09C126,-145.13 126,-182 126,-182 126,-182 1042.26,-182 1042.26,-182"/>
<polygon fill="black" stroke="black" points="1042.26,-185.5 1052.26,-182 1042.26,-178.5 1042.26,-185.5"/>
</g>
<!-- PaginateComponent  -->
<g id="node15" class="node">
<title>PaginateComponent </title>
<polygon fill="#fb8072" stroke="black" points="1175.54,-252 1042.46,-252 1042.46,-216 1175.54,-216 1175.54,-252"/>
<text text-anchor="middle" x="1109" y="-229.8" font-family="Times,serif" font-size="14.00">PaginateComponent </text>
</g>
<!-- DasboardModule&#45;&gt;PaginateComponent  -->
<g id="edge14" class="edge">
<title>DasboardModule&#45;&gt;PaginateComponent </title>
<path fill="none" stroke="black" stroke-dasharray="5,2" d="M1109,-187.11C1109,-187.11 1109,-205.99 1109,-205.99"/>
<polygon fill="black" stroke="black" points="1105.5,-205.99 1109,-215.99 1112.5,-205.99 1105.5,-205.99"/>
</g>
<!-- DasboardRoutingModule -->
<g id="node14" class="node">
<title>DasboardRoutingModule</title>
<polygon fill="#8dd3c7" stroke="black" points="2351.31,-122 2348.31,-126 2327.31,-126 2324.31,-122 2192.69,-122 2192.69,-86 2351.31,-86 2351.31,-122"/>
<text text-anchor="middle" x="2272" y="-99.8" font-family="Times,serif" font-size="14.00">DasboardRoutingModule</text>
</g>
<!-- DasboardRoutingModule&#45;&gt;DasboardModule -->
<g id="edge13" class="edge">
<title>DasboardRoutingModule&#45;&gt;DasboardModule</title>
<path fill="none" stroke="black" d="M2272,-122.09C2272,-145.13 2272,-182 2272,-182 2272,-182 1175.88,-182 1175.88,-182"/>
<polygon fill="black" stroke="black" points="1175.88,-178.5 1165.88,-182 1175.88,-185.5 1175.88,-178.5"/>
</g>
</g>
</svg>
